<svg width="94" height="108" viewBox="0 0 94 108" fill="#de6c5c" xmlns="http://www.w3.org/2000/svg">
<path d="M14.0066 91.467C15.1201 92.9307 16.3478 94.2801 17.6752 95.4989C15.9615 100.048 11.8684 102.734 7.71768 103.78C7.1936 104.18 7.1936 104.75 7.58142 105.42C11.4544 110.063 24.9913 108.23 26.4221 100.718C36.7097 104.832 62.9975 105.173 70.9688 100.859C88.1481 93.6123 98.2524 73.4408 91.4655 53.0577C89.2342 45.9047 85.4522 39.486 80.4599 34.3791V32.6159C84.9146 17.4814 77.3469 5.53245 64.2449 5.53245C62.5416 6.34354 62.1486 7.73651 62.4368 9.45273C65.141 14.2252 65.2301 19.3798 63.9199 25.1573C60.5134 27.8669 55.3041 28.29 50.6188 27.2791C48.8474 27.8962 48.3076 29.2539 48.4019 30.9995C53.3545 44.8469 66.5508 47.1567 74.8417 40.4035C76.4769 39.8628 78.1277 40.668 78.4212 41.9904C81.2146 52.9637 75.6855 66.7875 64.5331 69.7262C58.3385 71.3954 52.7833 71.6599 47.9355 70.3786C36.3377 65.4709 32.0297 54.9091 36.1018 42.3313C45.0688 27.3085 49.5497 17.5578 46.7511 9.10008C41.7462 -3.17208 29.2049 -2.26107 23.2671 7.23105C22.8879 7.87047 22.3046 8.32267 21.6372 8.4947L19.1112 8.40654C16.1868 7.98337 13.7027 7.50533 11.6588 6.97244C10.0131 7.21341 9.3004 8.45944 9.33184 10.4989C10.5372 13.7021 11.9837 16.3764 13.8127 18.2043C16.7915 20.9304 19.966 23.3759 23.3038 25.5159C24.3939 26.3916 24.4935 27.7552 23.9484 29.4361C22.6959 34.3321 20.1384 38.4581 16.7842 42.1021C9.40521 51.5354 6.82675 61.6741 7.40848 72.277C7.62335 78.8069 8.06882 87.9934 6.47562 90.1034C5.17988 91.9245 3.41031 93.2476 1.41301 93.8885C0.364854 94.4233 0.584967 95.1757 1.41301 96.0456C5.46938 98.5317 9.89261 98.0733 13.0581 94.0237C13.4956 93.2347 13.8159 92.3712 14.0066 91.467Z" fill="#de6c5c"/>
</svg>
